<svg width="245" height="70" viewBox="0 0 245 70" fill="none" xmlns="http://www.w3.org/2000/svg">
<path d="M92.6934 14.5446H99.6119V33.9862H104.251V14.5446H111.119V10.1924H92.6934V14.5446Z" fill="#FAFAFA"/>
<path d="M120.66 10.1924H115.931V33.9862H120.66V10.1924Z" fill="#FAFAFA"/>
<path d="M143.308 25.7311L131.672 10.1924H127.163V33.9862H131.801V18.4812L143.437 33.9862H147.941V10.1924H143.308V25.7311Z" fill="#FAFAFA"/>
<path d="M166.91 25.9619H171.347C170.577 28.6181 168.359 30.1344 165.203 30.1344C159.891 30.1344 157.465 25.9956 157.465 22.1544C157.465 18.2178 160.076 14.0397 164.917 14.0397C167.646 14.0397 169.909 15.4324 170.409 17.4316L170.583 18.1055H175.194L175.042 17.0834C174.391 12.7986 170.106 9.6875 164.855 9.6875C157.004 9.6875 152.77 16.1287 152.77 22.1881C152.77 28.3036 157.004 34.4922 165.102 34.4922C170.813 34.4922 175.048 31.235 176.216 25.9675H178.732V21.6153H166.91V25.9619Z" fill="#FAFAFA"/>
<path d="M239.853 10.1924L235.125 19.5594L229.25 10.1924H223.826L232.71 24.4002L227.88 33.9862H233.019L244.986 10.1924H239.853Z" fill="#FAFAFA"/>
<path d="M195.837 24.9561C198.235 23.5241 199.712 20.9409 199.712 18.133C199.712 13.7864 196.18 10.2205 191.839 10.1924H182.651V33.9525H187.279V26.0849H191.131L194.742 33.9862H199.959L195.837 24.9561ZM191.839 21.7215H187.279V14.5446H191.794C193.754 14.5446 195.36 16.1563 195.36 18.133C195.36 20.0985 193.776 21.7046 191.839 21.7215Z" fill="#FAFAFA"/>
<path d="M215.751 10.3887L215.683 10.1865H211.578L203.351 33.9803H208.394L210.152 28.6735H217.11L218.867 33.9803H223.905L215.751 10.3887ZM211.123 24.7818L213.628 17.2174L216.132 24.7818H211.123Z" fill="#FAFAFA"/>
<path d="M83.9215 20.3068L79.6311 19.3128C77.8621 18.8917 76.9861 18.0886 76.9861 16.7408C76.9861 15.0561 78.4799 13.9835 80.6981 13.9835C83.1465 13.9835 84.4887 15.2077 85.0278 16.7801H89.8966C89.1273 12.793 86.0274 9.95703 80.6588 9.95703C75.7169 9.95703 72.1959 12.9502 72.1959 17.2013C72.1959 21.0706 74.8016 22.8676 78.171 23.6369L82.3884 24.5916C84.4213 25.0521 85.258 25.8158 85.258 27.2366C85.258 29.1179 83.6856 30.1849 81.3158 30.1849C79.0133 30.1849 77.2893 29.2246 76.6435 27.158H71.5781C72.3812 31.6393 76.0988 34.245 81.3439 34.245C86.3306 34.245 90.0819 31.4877 90.0819 26.9278C90.0876 23.373 87.7514 21.1885 83.9215 20.3068Z" fill="#FAFAFA"/>
<path d="M91.9248 43.686V60.9824H88.0208V50.2586L84.2897 60.9824H81.3246L77.47 50.2586V60.9824H73.5659V43.686H78.1865L82.8072 55.7194L87.3784 43.686H91.9248Z" fill="#FAFAFA"/>
<path d="M96.0861 55.0769V43.686H100.089V55.0522C100.089 56.6336 101.176 57.9679 102.807 57.9679C104.438 57.9679 105.55 56.6336 105.55 55.0522V43.686H109.553V55.0769C109.553 58.635 106.958 61.4272 102.807 61.4272C98.6805 61.4272 96.0861 58.635 96.0861 55.0769Z" fill="#FAFAFA"/>
<path d="M113.004 55.2499H117.007C117.007 57.1278 118.168 58.2397 119.75 58.2397C121.084 58.2397 122.048 57.4243 122.048 56.2135C122.048 54.8545 120.886 54.3603 119.354 53.792C116.29 52.6554 113.498 51.6176 113.498 48.2572C113.498 44.8226 116.414 43.2412 119.601 43.2412C123.654 43.2412 125.729 45.811 125.729 48.7514H121.726C121.726 47.2194 120.96 46.2557 119.552 46.2557C118.44 46.2557 117.476 46.8735 117.476 48.0101C117.476 49.122 118.391 49.7644 119.947 50.308C123.011 51.3705 126.026 52.4577 126.026 55.9912C126.026 59.3516 123.332 61.4272 119.626 61.4272C115.771 61.4272 113.004 59.2033 113.004 55.2499Z" fill="#FAFAFA"/>
<path d="M129.828 60.9824V43.686H133.881V60.9824H129.828Z" fill="#FAFAFA"/>
<path d="M150.549 54.7804H154.799C154.132 58.4374 150.994 61.4272 146.151 61.4272C140.369 61.4272 136.885 57.1772 136.885 52.3342C136.885 47.59 140.196 43.2412 146.101 43.2412C151.167 43.2412 154.305 46.4287 154.774 50.4069H150.598C150.228 48.3807 148.696 46.8488 146.151 46.8488C142.84 46.8488 140.962 49.4679 140.962 52.3342C140.962 55.3734 143.062 57.8196 146.2 57.8196C148.523 57.8196 150.055 56.4853 150.549 54.7804Z" fill="#FAFAFA"/>
<path d="M3.75684 47.3521C7.33967 44.4544 10.4227 41.3489 13.0789 38.1592C24.0464 52.8555 27.9662 64.6373 28.6794 70.0003L3.75684 47.3521Z" fill="#FAFAFA"/>
<path d="M30.0441 65.7548C28.7132 60.6613 24.9675 50.2161 14.7469 36.5698C10.4958 30.898 5.5371 26.1808 0 21.5141L29.2355 0.00585938C29.5836 3.18998 32.0489 20.6886 44.9539 37.0977C35.1881 50.261 31.4593 60.257 30.0441 65.7548Z" fill="#FAFAFA"/>
<path d="M31.3975 70.0003C32.105 64.6373 36.0248 52.8555 46.9979 38.1592C49.6598 41.3433 52.7428 44.4488 56.32 47.3521L31.3975 70.0003Z" fill="#FAFAFA"/>
<path d="M47.0148 36.2832C34.4468 20.4974 31.8467 3.65022 31.4199 0L61.245 21.4128C55.5226 26.2198 50.8447 31.274 47.0148 36.2832Z" fill="#FAFAFA"/>
</svg>
